<?xml version="1.0" standalone="no"?><!DOCTYPE svg PUBLIC "-//W3C//DTD SVG 1.1//EN" "http://www.w3.org/Graphics/SVG/1.1/DTD/svg11.dtd"><svg t="1531531316785" class="icon" style="" viewBox="0 0 1024 1024" version="1.1" xmlns="http://www.w3.org/2000/svg" p-id="19212" xmlns:xlink="http://www.w3.org/1999/xlink" width="64" height="64"><defs><style type="text/css"></style></defs><path d="M140.8 920.064a369.664 65.536 0 1 0 739.328 0 369.664 65.536 0 1 0-739.328 0Z" fill="#EAEAEA" p-id="19213"></path><path d="M779.776 910.336H243.712c-16.896 0-30.72-13.824-30.72-30.72V487.424c0-5.632 4.608-10.24 10.24-10.24h577.024c5.632 0 10.24 4.608 10.24 10.24v392.192c0 16.896-13.824 30.72-30.72 30.72z" fill="#FFFFFF" p-id="19214"></path><path d="M787.968 915.968H235.52c-15.36 0-28.16-12.8-28.16-28.16V484.352c0-7.168 5.632-13.312 13.312-13.312h582.656c7.168 0 13.312 5.632 13.312 13.312v402.944c-0.512 15.872-13.312 28.672-28.672 28.672zM220.672 482.816c-1.024 0-2.048 1.024-2.048 2.048v402.944c0 9.216 7.68 16.896 16.896 16.896h552.448c9.216 0 16.896-7.68 16.896-16.896V484.352c0-1.024-1.024-2.048-2.048-2.048H220.672v0.512z" fill="#B4B5B5" p-id="19215"></path><path d="M316.928 755.712m-31.232 0a31.232 31.232 0 1 0 62.464 0 31.232 31.232 0 1 0-62.464 0Z" fill="#EFEFEF" p-id="19216"></path><path d="M706.56 755.712m-31.232 0a31.232 31.232 0 1 0 62.464 0 31.232 31.232 0 1 0-62.464 0Z" fill="#EFEFEF" p-id="19217"></path><path d="M810.496 482.816H212.992c-2.56 0-4.608-1.536-5.12-3.584-1.024-2.048 0-4.608 1.536-6.144l103.936-93.184c1.024-1.024 2.56-1.536 3.584-1.536h416.256c1.536 0 3.072 0.512 4.096 2.048l77.312 93.184c1.536 1.536 1.536 4.096 0.512 6.144-0.512 1.536-2.56 3.072-4.608 3.072zM227.84 471.552H798.72L730.624 389.12H319.488L227.84 471.552z" fill="#B4B5B5" p-id="19218"></path><path d="M967.168 545.792c-0.512 0-1.536 0-2.048-0.512l-156.672-62.976c-1.024-0.512-1.536-1.024-2.048-1.536l-77.312-93.184c-1.536-2.048-1.536-5.12 0-7.168s4.608-2.56 6.656-1.536L880.64 448.512c0.512 0.512 1.024 0.512 1.536 1.024l88.576 86.528c2.048 2.048 2.048 4.608 1.024 7.168-1.024 1.536-2.56 2.56-4.608 2.56zM814.08 472.576l129.024 51.712L875.52 458.24l-121.344-58.368L814.08 472.576zM56.832 524.8c-2.048 0-4.096-1.024-5.12-3.072-1.024-2.56-0.512-5.12 1.536-6.656l97.792-77.312c0.512-0.512 1.024-0.512 1.536-1.024L314.88 378.88c2.56-1.024 5.12 0 6.656 2.56 1.536 2.048 1.024 5.12-1.024 7.168L224.256 481.28c-0.512 0.512-1.536 1.024-2.56 1.536l-163.84 41.984h-1.024z m100.864-77.824l-76.8 60.416 136.704-35.328 76.8-74.24-136.704 49.152z" fill="#B4B5B5" p-id="19219"></path><path d="M434.176 480.768l41.472 89.088 27.136-15.872 30.72 15.872 31.744-14.848 49.152 14.848-43.52-89.088z" fill="#CAE3FC" p-id="19220"></path><path d="M614.4 575.488h-1.536l-47.104-13.824-29.696 13.824c-1.536 0.512-3.072 0.512-4.608 0l-28.16-13.824-24.576 13.824c-1.536 1.024-3.072 1.024-4.608 0.512s-2.56-1.536-3.584-3.072l-41.472-88.576c-1.024-1.536-0.512-3.584 0.512-5.632 1.024-1.536 3.072-2.56 4.608-2.56h136.704c2.048 0 4.096 1.024 5.12 3.072l43.52 88.576c1.024 2.048 0.512 4.608-0.512 6.144-1.536 0.512-3.072 1.536-4.608 1.536z m-111.616-27.136c1.024 0 1.536 0 2.56 0.512l28.672 14.336 29.184-13.312c1.024-0.512 2.56-0.512 4.096-0.512l36.864 10.752-36.864-73.728H442.88l35.328 75.264 21.504-12.288c1.024-0.512 2.048-1.024 3.072-1.024z" fill="#B4B5B5" p-id="19221"></path><path d="M453.12 198.144c-1.536 0-3.072-0.512-4.096-1.536-3.072-2.56-3.584-6.656-1.024-9.216 3.584-4.608 6.144-7.168 6.144-7.68 2.56-2.56 6.656-3.072 9.728-0.512s3.072 6.656 0.512 9.728c0 0-2.048 2.56-5.632 6.656-2.048 2.048-3.584 2.56-5.632 2.56zM515.072 415.232c-2.048 0-4.096-1.024-5.632-3.072-3.584-5.632-7.168-10.752-9.728-15.872-2.048-3.072-1.024-7.168 2.56-9.216 3.072-2.048 7.168-1.024 9.216 2.56 3.072 4.608 6.144 9.728 9.728 14.848 2.048 3.072 1.024 7.168-2.048 9.216-1.536 1.024-3.072 1.536-4.096 1.536z m-21.504-38.4c-2.56 0-5.12-1.536-6.144-4.096s-2.048-5.12-3.072-8.192c-1.024 1.536-3.072 3.072-5.12 3.072s-4.096 0.512-6.656 0.512c-4.608 0-9.216-0.512-13.312-1.024-3.584-0.512-6.144-4.096-5.12-7.68 0.512-3.584 4.096-6.144 7.68-5.12 3.584 0.512 7.168 1.024 10.752 1.024h5.632c1.024 0 2.56 0 3.584 0.512v-1.024c-1.024-3.584 1.536-7.168 5.12-8.192s7.168 1.536 8.192 5.12c1.024 5.12 3.072 10.752 5.632 16.384 1.536 3.584 0 7.168-3.584 8.704h-3.584z m10.24-14.336c-2.56 0-5.12-1.536-6.144-4.608-1.536-3.584 0.512-7.168 4.096-8.704 0.512-0.512 1.536-0.512 2.048-1.024 5.12-2.048 9.728-4.096 13.824-6.144 3.584-1.536 7.168 0 9.216 3.072 1.536 3.584 0 7.168-3.072 9.216-4.608 2.048-9.728 4.608-14.848 6.656-1.024 0.512-1.536 0.512-2.56 1.024-1.024 0-2.048 0.512-2.56 0.512z m-66.56-5.632c-1.536 0-3.072-0.512-4.096-1.536-5.12-4.096-9.728-9.216-13.824-14.848-2.048-3.072-1.024-7.168 2.048-9.216s7.168-1.024 9.216 2.048c3.072 4.608 6.656 8.704 10.752 11.776 3.072 2.048 3.584 6.656 1.024 9.216-1.024 1.536-3.072 2.56-5.12 2.56z m104.96-14.848c-2.048 0-4.096-1.024-5.632-2.56-2.048-3.072-1.536-7.168 1.536-9.216 5.12-3.584 9.216-7.68 12.288-11.264 2.56-3.072 6.656-3.584 9.728-1.024s3.584 6.656 1.024 9.728c-3.584 4.608-8.704 9.216-14.336 13.824-1.536 0-3.072 0.512-4.608 0.512zM486.4 334.336h-1.024c-3.584-0.512-6.144-4.096-5.632-7.68 1.024-7.168 3.584-13.824 7.168-19.456 2.048-3.072 6.144-4.096 9.216-2.048 3.072 2.048 4.096 6.144 2.048 9.216-2.56 4.096-4.608 9.216-5.12 14.336-0.512 3.072-3.584 5.632-6.656 5.632z m-71.168-14.336c-3.072 0-5.632-2.048-6.656-5.12-1.536-6.144-2.048-12.8-2.56-19.456 0-3.584 2.56-6.656 6.656-7.168 3.584 0 6.656 2.56 7.168 6.656 0.512 6.144 1.024 11.776 2.048 16.896 1.024 3.584-1.536 7.168-5.12 8.192-0.512-0.512-1.024 0-1.536 0z m148.48-14.336c-3.072 0-6.144-2.56-6.656-5.632-1.024-4.608-4.096-7.168-7.168-8.704-3.584-1.536-5.12-5.632-3.584-8.704 1.536-3.584 5.632-5.12 8.704-3.584 8.192 3.584 13.824 10.24 14.848 18.432 0.512 3.584-2.048 7.168-5.632 7.68 0.512 0.512 0 0.512-0.512 0.512z m-52.736-6.144c-2.56 0-4.608-1.024-5.632-3.584-2.048-3.072-1.024-7.168 2.56-9.216 5.12-3.072 10.752-5.632 17.408-7.68h0.512c3.584-1.024 7.168 1.024 8.192 4.608s-1.024 7.168-4.608 8.192h-0.512c-5.632 1.536-10.24 4.096-14.848 6.656-0.512 1.024-2.048 1.024-3.072 1.024z m-96.768-23.552h-1.024c-3.584-0.512-6.144-4.096-5.632-7.68 1.024-6.144 2.56-12.288 4.608-18.944 1.024-3.584 5.12-5.632 8.704-4.096 3.584 1.024 5.632 5.12 4.096 8.704-2.048 5.632-3.072 11.264-4.096 16.896-0.512 3.072-3.072 5.12-6.656 5.12z m14.848-40.96c-1.024 0-2.048 0-3.072-1.024-3.072-1.536-4.608-5.632-3.072-9.216 3.072-5.632 6.144-10.752 9.728-16.384 2.048-3.072 6.144-4.096 9.216-2.048 3.072 2.048 4.096 6.144 2.048 9.216-3.072 5.12-6.144 10.24-8.704 15.36-1.536 2.56-4.096 4.096-6.144 4.096zM536.064 443.904c-2.048 0-4.096-1.024-5.12-2.56l-6.144-7.68c-2.048-3.072-1.536-7.168 1.024-9.216 3.072-2.048 7.168-1.536 9.216 1.024s3.584 4.608 5.632 7.168c2.56 3.072 2.048 7.168-1.024 9.728-0.512 1.024-2.048 1.536-3.584 1.536z" fill="#DDDDDD" p-id="19222"></path><path d="M462.336 165.376c-7.168-4.608-9.216-13.824-4.608-20.48l36.352-56.832c4.608-7.168 13.824-9.216 20.48-4.608 7.168 4.608 9.216 13.824 4.608 20.48l-36.352 56.832c-4.096 7.168-13.824 9.216-20.48 4.608z" fill="#FFFFFF" p-id="19223"></path><path d="M470.528 173.056c-3.584 0-7.68-1.024-11.264-3.072-9.728-6.144-12.288-18.944-6.144-28.16l36.352-56.832c6.144-9.728 18.944-12.288 28.16-6.144 4.608 3.072 7.68 7.68 9.216 12.8 1.024 5.632 0 10.752-2.56 15.36L487.936 163.84c-4.096 6.144-10.752 9.216-17.408 9.216z m-5.12-12.288c4.096 2.56 10.24 1.536 12.8-3.072l36.352-56.832c1.536-2.048 1.536-4.608 1.024-7.168-0.512-2.56-2.048-4.608-4.096-5.632-4.096-2.56-10.24-1.536-12.8 3.072l-36.352 56.832c-2.56 4.096-1.536 9.728 3.072 12.8z" fill="#B4B5B5" p-id="19224"></path><path d="M415.21877 114.971829a38.4 38.4 0 1 0 41.303039-64.747965 38.4 38.4 0 1 0-41.303039 64.747965Z" fill="#FFFFFF" p-id="19225"></path><path d="M435.2 126.464c-8.192 0-16.384-2.56-23.552-7.168-20.48-13.312-26.624-40.448-13.312-60.928s40.448-26.624 60.928-13.312c9.728 6.144 16.896 16.384 19.456 27.648s0.512 23.04-5.632 33.28-16.384 16.896-27.648 19.456c-3.584 0.512-6.656 1.024-10.24 1.024z m0.512-76.8c-10.752 0-21.504 5.12-27.648 15.36-9.728 15.36-5.12 35.84 10.24 45.568 15.36 9.728 35.84 5.12 45.568-10.24 4.608-7.168 6.144-16.384 4.608-24.576-2.048-8.704-7.168-15.872-14.336-20.48-6.144-4.096-12.288-5.632-18.432-5.632z" fill="#B4B5B5" p-id="19226"></path><path d="M528.183514 187.047546a38.4 38.4 0 1 0 41.303039-64.747965 38.4 38.4 0 1 0-41.303039 64.747965Z" fill="#FFFFFF" p-id="19227"></path><path d="M548.864 198.656c-8.192 0-16.384-2.56-23.552-7.168-9.728-6.144-16.896-16.384-19.456-27.648s-0.512-23.04 5.632-33.28 16.384-16.896 27.648-19.456 23.04-0.512 33.28 5.632c9.728 6.144 16.896 16.384 19.456 27.648s0.512 23.04-5.632 33.28c-6.144 9.728-16.384 16.896-27.648 19.456-3.584 1.024-6.656 1.536-9.728 1.536z m0-76.8c-2.56 0-4.608 0.512-7.168 1.024-8.704 2.048-15.872 7.168-20.48 14.336s-6.144 16.384-4.608 24.576c2.048 8.704 7.168 15.872 14.336 20.48s16.384 6.144 24.576 4.608c8.704-2.048 15.872-7.168 20.48-14.336 4.608-7.168 6.144-16.384 4.608-24.576-2.048-8.704-7.168-15.872-14.336-20.48-5.12-4.096-11.264-5.632-17.408-5.632z" fill="#B4B5B5" p-id="19228"></path><path d="M506.88 83.968c-3.072 0-5.632-2.048-5.632-5.12l-2.048-33.28c0-3.072 2.048-5.632 5.12-6.144 3.072 0 5.632 2.048 6.144 5.12l2.048 33.28c0 3.072-2.048 6.144-5.632 6.144z" fill="#B4B5B5" p-id="19229"></path><path d="M522.24 93.696c-2.048 0-4.096-1.536-5.12-3.584-1.024-3.072 0.512-6.144 3.072-7.168l31.232-12.288c3.072-1.024 6.144 0.512 7.168 3.072 1.024 3.072-0.512 6.144-3.072 7.168l-31.232 12.288c-0.512 0.512-1.024 0.512-2.048 0.512z" fill="#B4B5B5" p-id="19230"></path><path d="M512 786.432m-35.328 0a35.328 35.328 0 1 0 70.656 0 35.328 35.328 0 1 0-70.656 0Z" fill="#FFFFFF" p-id="19231"></path><path d="M512 825.856c-21.504 0-38.912-17.408-38.912-38.912s17.408-38.912 38.912-38.912 38.912 17.408 38.912 38.912-17.408 38.912-38.912 38.912z m0-71.168c-17.408 0-31.744 14.336-31.744 31.744s14.336 31.744 31.744 31.744c17.408 0 31.744-14.336 31.744-31.744-0.512-17.408-14.336-31.744-31.744-31.744z" fill="#B4B5B5" p-id="19232"></path><path d="M316.928 480.256c-1.536 0-3.072-1.536-3.072-3.072V383.488c0-1.536 1.536-3.072 3.072-3.072s3.072 1.536 3.072 3.072v93.184c0 2.048-1.024 3.584-3.072 3.584zM733.184 480.256c-1.536 0-3.072-1.536-3.072-3.072V383.488c0-1.536 1.536-3.072 3.072-3.072s3.072 1.536 3.072 3.072v93.184c0 2.048-1.536 3.584-3.072 3.584z" fill="#B4B5B5" p-id="19233"></path><path d="M395.776 688.128c-2.048 0-3.584-0.512-5.12-2.048l-43.008-43.008c-3.072-3.072-3.072-7.68 0-10.752s7.68-3.072 10.752 0l43.008 43.008c3.072 3.072 3.072 7.68 0 10.752-2.048 1.024-4.096 2.048-5.632 2.048z" fill="#B4B5B5" p-id="19234"></path><path d="M352.256 688.128c-2.048 0-3.584-0.512-5.12-2.048-3.072-3.072-3.072-7.68 0-10.752l43.008-43.008c3.072-3.072 7.68-3.072 10.752 0s3.072 7.68 0 10.752l-43.008 43.008c-1.536 1.024-3.584 2.048-5.632 2.048z" fill="#B4B5B5" p-id="19235"></path><path d="M671.232 688.128c-2.048 0-3.584-0.512-5.12-2.048l-43.008-43.008c-3.072-3.072-3.072-7.68 0-10.752s7.68-3.072 10.752 0l43.008 43.008c3.072 3.072 3.072 7.68 0 10.752-2.048 1.024-3.584 2.048-5.632 2.048z" fill="#B4B5B5" p-id="19236"></path><path d="M627.712 688.128c-2.048 0-3.584-0.512-5.12-2.048-3.072-3.072-3.072-7.68 0-10.752l43.008-43.008c3.072-3.072 7.68-3.072 10.752 0s3.072 7.68 0 10.752l-43.008 43.008c-1.536 1.024-3.584 2.048-5.632 2.048z" fill="#B4B5B5" p-id="19237"></path></svg>